<svg width="49" height="47" viewBox="0 0 49 47" fill="none" xmlns="http://www.w3.org/2000/svg">
<path id="Vector" d="M42.935 38.0669C37.8053 44.0093 31.5327 46.9805 24.1174 46.9805C20.232 46.9805 16.1181 45.7615 11.8263 43.349C6.95053 40.327 3.57301 35.4258 1.6684 28.6962C1.21129 26.9947 0.855751 25.2933 0.627197 23.541C0.906541 17.0145 3.06511 11.6054 7.10289 7.31371C9.31225 4.95199 11.9787 3.12356 15.0769 1.90461C18.175 0.660258 21.2478 0.0507812 24.2952 0.0507812C27.3426 0.0507812 30.2884 0.660258 33.1834 1.90461C36.053 3.14895 38.5671 4.82502 40.7003 6.93279C42.8335 9.04056 44.5857 11.58 45.9316 14.5259C47.2776 17.4717 48.014 20.5952 48.1664 23.8966C48.1156 26.4868 47.6331 29.0263 46.7189 31.515C45.8047 34.0037 44.5603 36.2131 42.9604 38.1177L42.935 38.0669ZM24.6507 5.81541H24.2444C21.8319 5.81541 19.521 6.32331 17.337 7.31371C15.1277 8.30411 13.2484 9.67543 11.6232 11.4277C10.0233 13.1545 8.88054 14.8814 8.22027 16.6082C7.56001 18.3351 7.0521 20.4936 6.72197 23.1093C6.72197 26.1821 7.50921 29.1025 9.08369 31.8451C10.6582 34.5878 12.7913 36.7971 15.4578 38.4478C18.1243 40.0985 20.8161 40.9365 23.508 40.9365C26.1998 40.9365 28.6377 40.454 30.7963 39.5144C32.9549 38.5748 34.8595 37.2796 36.4593 35.6798C38.0592 34.0799 39.3544 32.0991 40.3448 29.8136C41.3098 27.528 41.8177 25.1663 41.8177 22.7284C41.8177 20.2905 41.3606 18.0557 40.421 15.9988C39.4813 13.9418 38.237 12.1641 36.6879 10.7166C35.1388 9.24372 33.3104 8.07556 31.2026 7.21213C29.1202 6.32331 26.9363 5.8662 24.6761 5.84081L24.6507 5.81541ZM33.7421 26.2329H34.1484L34.5293 26.2075C35.4182 26.2075 35.9261 26.4106 36.053 26.7916C35.4182 29.5596 34.123 31.8959 32.1422 33.7498C30.1868 35.6036 27.9521 36.5432 25.4634 36.5432C20.359 36.5432 16.626 34.5624 14.2642 30.5754C12.9437 28.366 12.258 25.8774 12.1819 23.1347C12.3342 20.7222 13.0707 18.5382 14.3404 16.532C15.6356 14.5512 17.2354 13.0022 19.1655 11.9356C21.0701 10.8436 23.1017 10.3103 25.184 10.3103C28.1044 10.3103 30.4154 11.1483 32.1676 12.799C33.9199 14.4751 35.088 16.7098 35.6975 19.5032C35.6213 19.681 35.1642 19.7572 34.3262 19.7572H33.6659L29.3488 19.7318L29.1202 19.5032C28.4092 17.2939 26.9871 16.2019 24.8539 16.2019C22.0859 16.2019 20.3336 17.8018 19.6226 21.0015C19.4448 21.7634 19.3686 22.576 19.3686 23.3633C19.3686 25.2171 19.8003 26.7916 20.6637 28.1121C21.5272 29.4326 22.7715 30.0675 24.3968 30.0675C26.0221 30.0675 27.0633 29.6612 27.5204 28.8485C28.2314 27.5534 28.8155 26.69 29.298 26.2583C29.8313 26.2075 30.517 26.2075 31.4058 26.2075H33.7167L33.7421 26.2329ZM35.7737 19.5032V19.554H35.7483L35.7737 19.5032Z" fill="black"/>
</svg>
