<svg width="65" height="79" viewBox="0 0 65 79" fill="none" xmlns="http://www.w3.org/2000/svg">
<path id="Vector" d="M6.98359 51.2178L12.926 51.2686H14.6528L15.2877 51.2178L23.668 51.3702C25.1663 51.4718 25.9789 52.386 26.1567 54.1383C26.2329 54.8239 26.3091 55.535 26.4107 56.2206C26.6392 57.8713 27.8328 58.7093 30.0167 58.7093C32.2007 58.7093 33.572 57.6935 34.1561 55.6366C34.5878 54.0621 34.791 52.1575 34.791 49.9735V48.6784H34.6386L34.4354 41.644C34.3085 37.0475 34.2323 30.2417 34.2323 21.2519C34.2323 12.2621 34.3085 5.73566 34.4354 1.69788L34.3846 1.64709C34.3846 1.39314 34.4862 1.18998 34.6894 1.06301L35.3242 0.961426L37.7622 1.01222H55.9195L59.5509 0.961426H64.4014C64.6553 0.961426 64.8585 1.1138 64.9854 1.41853C64.9093 2.15498 64.8839 3.24696 64.8839 4.74526V5.5325L64.8331 6.37053L64.7315 8.91002C64.5029 15.1825 64.376 24.5279 64.376 36.8951V42.355C64.376 47.0277 64.376 50.9131 64.3252 54.0367C64.2744 57.1602 63.5125 60.2838 62.0142 63.4074C60.5159 66.5309 58.6367 69.0196 56.3512 70.8989C54.0911 72.7781 51.4754 74.3018 48.4788 75.5461C43.222 77.7047 37.7368 78.7713 32.0229 78.7713C26.3091 78.7713 21.5348 78.1872 17.7002 77.0444C14.2973 76.181 11.4785 74.8605 9.24373 73.1082C7.00898 71.3306 5.28213 69.6545 4.06318 68.08C1.39672 64.474 0.0507897 60.0807 0.0507897 54.8493V53.5542L0 52.9701C0 51.675 0.203159 51.0401 0.584082 51.0401L6.98359 51.2432V51.2178Z" fill="black"/>
</svg>
