<svg width="33" height="33" viewBox="0 0 33 33" fill="none" xmlns="http://www.w3.org/2000/svg">
<path id="Vector" d="M18.9584 0.0981617L25.2564 -0.00341797C30.3099 -0.00341797 32.8494 0.174346 32.8494 0.529874C32.7732 0.656848 32.7478 0.834612 32.7478 1.06317C32.2907 2.18054 31.7067 3.78042 31.021 5.86279C30.3353 7.94517 29.8782 9.26571 29.6751 9.82439L28.2276 13.8368C25.8151 21.0743 23.7835 26.7628 22.1328 30.9021C20.7361 31.9941 17.4094 32.5274 12.1526 32.5274H7.63234L6.99746 32.5782H3.61994C2.09625 32.5782 1.20743 32.4512 0.953485 32.1719C0.953485 32.1719 0.3694 31.8671 0.801113 30.0641C0.953482 29.4546 1.08046 28.9721 1.15665 28.642L3.03586 21.7092C2.90889 21.6838 8.59734 3.52647 9.13063 0.0727668C9.53695 0.047372 10.0448 0.0219772 10.7051 0.0219772H18.933L18.9584 0.0981617Z" fill="black"/>
</svg>
