<svg width="79" height="81" viewBox="0 0 79 81" fill="none" xmlns="http://www.w3.org/2000/svg">
<path id="Vector" d="M0.876709 40.5716L0.978291 39.4796C1.38461 35.3402 1.8925 31.6834 2.55277 28.4836C3.21304 25.2839 4.27962 22.3127 5.77792 19.5192C9.3078 13.3991 14.2598 8.7772 20.5831 5.60284C26.9064 2.45388 33.7377 0.854004 41.0768 0.854004C48.4159 0.854004 55.0439 2.32691 61.0371 5.27271C64.6178 7.02495 67.4112 9.23431 69.4174 11.9262C73.2775 16.7512 75.8423 21.1953 77.0613 25.2585C78.2802 29.3216 78.8897 34.0197 78.8897 39.3526C78.8897 51.1866 76.4518 60.2272 71.5506 66.4235L69.2651 69.4455C66.1923 73.0262 61.8498 75.7688 56.2121 77.6989C50.5745 79.6289 45.013 80.6446 39.5023 80.6954C30.0554 80.6954 22.2846 78.7146 16.2406 74.753C5.98107 68.0996 0.876709 56.6973 0.876709 40.5208V40.5716ZM29.3951 40.1652C29.3951 40.1652 29.3951 40.2922 29.3443 40.4192V40.5716C29.2174 41.9683 29.1412 43.5174 29.1412 45.2442C29.1412 46.9711 29.2936 48.7741 29.5729 50.7041C29.8522 52.6341 30.3093 54.5387 30.9696 56.4687C31.6045 58.3988 32.6203 59.9478 33.9662 61.1414C35.4137 62.4111 37.039 63.0206 38.842 63.0206C40.6451 63.0206 42.1688 62.7667 43.4131 62.2588C44.6574 61.7509 45.6986 61.0906 46.5367 60.3034C47.3747 59.5161 48.1111 58.4242 48.746 57.0782C50.3205 53.4722 51.1331 47.8853 51.1331 40.3176C51.1331 32.75 50.2443 27.2139 48.4921 24.1157C46.7144 21.0175 44.048 19.4684 40.4927 19.4684C38.715 19.4684 37.1406 19.9001 35.7946 20.7636C34.4487 21.627 33.4583 22.5158 32.7727 23.43C32.087 24.3442 31.4013 26.325 30.6903 29.3216C29.9792 32.3436 29.6237 35.1117 29.6237 37.6512L29.4205 40.1906L29.3951 40.1652Z" fill="black"/>
</svg>
