<svg width="71" height="81" viewBox="0 0 71 81" fill="none" xmlns="http://www.w3.org/2000/svg">
<path id="Vector" d="M0.775741 57.383L27.0086 56.9259C27.6689 56.9259 28.2276 57.4846 28.6593 58.602C29.1164 59.7193 29.5481 60.6081 29.9798 61.2684C30.9956 62.8429 32.6971 63.6555 35.0588 63.6555C37.4205 63.6555 39.3251 63.0968 40.798 62.0049C42.2455 60.8875 42.982 59.4654 42.982 57.7131C42.982 55.9609 42.5249 54.7673 41.6361 54.1071C40.7472 53.4468 39.7568 52.8373 38.7156 52.2278C37.6491 51.6184 36.1 51.1359 34.0176 50.8057C31.9606 50.4756 30.8179 50.2724 30.6147 50.2216H30.7163L27.8975 49.4852C26.069 49.1551 24.5453 48.7995 23.3264 48.3932C15.4286 46.2854 9.71472 43.619 6.18484 40.4192C2.65495 37.2195 0.902703 32.9024 0.902703 27.4679C0.902703 23.5317 1.63916 20.0018 3.08666 16.8528C4.53417 13.7038 6.43878 11.139 8.80051 9.15817C15.5809 3.44433 24.9263 0.574707 36.8618 0.574707C46.3595 0.574707 53.8002 2.30156 59.2347 5.72986H59.1839C62.663 8.24395 65.0247 10.7073 66.3199 13.1452C67.615 15.5831 68.4276 18.5797 68.7578 22.1349L67.4626 23.4301C58.7776 23.7602 51.0576 23.938 44.3533 23.938C42.3471 23.938 41.1282 23.3539 40.7218 22.1603C40.5441 21.6524 40.3663 21.1699 40.1886 20.662C39.7314 19.4685 38.2331 18.8844 35.7191 18.8844H35.5159C33.5605 18.8844 31.8844 19.3415 30.5131 20.2557C29.1164 21.1699 28.4307 22.0588 28.4053 22.8968C28.4053 23.7602 28.5831 24.4713 28.9386 25.03C29.3196 25.5886 29.7259 26.0457 30.1576 26.3759C30.5893 26.706 31.2496 27.0361 32.1384 27.3917C33.0272 27.7472 33.7129 27.9758 34.1446 28.0773C34.6017 28.2043 35.2873 28.3821 36.2523 28.636L37.9792 29.0931C38.6649 29.2963 40.6964 29.7788 44.0486 30.5914C47.4007 31.4041 50.1941 32.1405 52.4543 32.877V32.8262C59.4887 35.2133 64.3137 38.1845 66.8532 41.7398C69.418 45.295 70.6878 49.4344 70.6878 54.1579C70.6878 66.7537 63.1709 74.9308 48.1118 78.6639C43.7438 79.7559 39.0966 80.5431 34.1192 81.0002C28.0244 81.0002 22.0058 80.1114 16.0634 78.3338C10.121 76.5561 6.13405 73.6357 4.10246 69.5979C2.75653 67.6425 1.84232 65.8649 1.38521 64.2142C0.928104 62.5636 0.54717 60.278 0.242432 57.3322C0.344011 57.3576 0.496381 57.383 0.69954 57.383H0.775741Z" fill="black"/>
</svg>
